# xmcd
#
# Track frame offsets: 
#        150
#        22671
#        42277
#        63523
#        82568
#        107572
#        126337
#        147514
#        169253
#        186945
#        207153
#        231825
#
# Disc length: 3438 seconds
#
# Revision: 0
# Processed by: cddbd v1.5.2PL0 Copyright (c) Steve Scherf et al.
# Submitted via: ExactAudioCopy v1.0b3
#
DISCID=9c0d6c0c
DTITLE=陈静 - DTS ES 正品 情难忱
DYEAR=2007
DGENRE=DTS ES
TTITLE0=值得
TTITLE1=有故事的人
TTITLE2=情难枕
TTITLE3=你知道我在等你吗
TTITLE4=暧昧
TTITLE5=信仰
TTITLE6=真挚
TTITLE7=童话
TTITLE8=俩俩相忘
TTITLE9=掌心
TTITLE10=雪候鸟 
TTITLE11=黄昏
EXTD=
EXTT0=
EXTT1=
EXTT2=
EXTT3=
EXTT4=
EXTT5=
EXTT6=
EXTT7=
EXTT8=
EXTT9=
EXTT10=
EXTT11=
PLAYORDER=
